# Blender v2.69 (sub 0) OBJ File: 'cubemap.blend'
# www.blender.org
mtllib cubemap.mtl
o Cube.006
v 125.727310 -125.727310 -125.727303
v 125.727310 -125.727310 125.727310
v -125.727325 -125.727310 125.727287
v -125.727264 -125.727310 -125.727356
vt 0.000000 0.000000
vt 1.000000 0.000000
vt 0.000000 1.000000
vt 1.000000 1.000000
vn 0.000000 -1.000000 0.000000
usemtl Material.005
s off
f 1/1/1 2/2/1 4/3/1
f 2/2/1 3/4/1 4/3/1
o Cube.005
v 125.727371 125.727310 -125.727242
v 125.727226 125.727310 125.727386
v -125.727356 125.727310 125.727264
v -125.727303 125.727310 -125.727310
vt 0.000000 0.000000
vt 1.000000 0.000000
vt 0.000000 1.000000
vt 1.000000 1.000000
vn 0.000000 1.000000 0.000000
usemtl Material.004
s off
f 5/5/2 8/6/2 6/7/2
f 8/6/2 7/8/2 6/7/2
o Cube.004
v 125.727310 -125.727310 -125.727303
v -125.727264 -125.727310 -125.727356
v 125.727371 125.727310 -125.727242
v -125.727303 125.727310 -125.727310
vt 0.000000 0.000000
vt 1.000000 0.000000
vt 0.000000 1.000000
vt 1.000000 1.000000
vn 0.000000 0.000000 -1.000000
usemtl Material.003
s off
f 11/9/3 9/10/3 12/11/3
f 9/10/3 10/12/3 12/11/3
o Cube.003
v -125.727325 -125.727310 125.727287
v -125.727264 -125.727310 -125.727356
v -125.727356 125.727310 125.727264
v -125.727303 125.727310 -125.727310
vt 0.000000 0.000000
vt 1.000000 0.000000
vt 0.000000 1.000000
vt 1.000000 1.000000
vn -1.000000 -0.000000 -0.000000
usemtl Material.002
s off
f 13/13/4 15/14/4 14/15/4
f 15/14/4 16/16/4 14/15/4
o Cube.002
v 125.727310 -125.727310 125.727310
v -125.727325 -125.727310 125.727287
v 125.727226 125.727310 125.727386
v -125.727356 125.727310 125.727264
vt 0.000000 0.000000
vt 1.000000 0.000000
vt 0.000000 1.000000
vt 1.000000 1.000000
vn -0.000000 -0.000000 1.000000
usemtl Material.001
s off
f 17/17/5 19/18/5 18/19/5
f 19/18/5 20/20/5 18/19/5
o Cube.001
v 125.727310 -125.727310 -125.727303
v 125.727310 -125.727310 125.727310
v 125.727371 125.727310 -125.727242
v 125.727226 125.727310 125.727386
vt 0.000000 0.000000
vt 1.000000 0.000000
vt 0.000000 1.000000
vt 1.000000 1.000000
vn 1.000000 -0.000000 0.000000
vn 1.000000 0.000000 0.000001
usemtl Material
s off
f 21/21/6 23/22/6 22/23/6
f 23/22/7 24/24/7 22/23/7
